<?xml version="1.0" encoding="UTF-8"?>
<!DOCTYPE svg PUBLIC "-//W3C//DTD SVG 1.1//EN" "http://www.w3.org/Graphics/SVG/1.1/DTD/svg11.dtd">
<svg xmlns="http://www.w3.org/2000/svg" version="1.1" width="250px" height="150px" style="shape-rendering:geometricPrecision; text-rendering:geometricPrecision; image-rendering:optimizeQuality; fill-rule:evenodd; clip-rule:evenodd" xmlns:xlink="http://www.w3.org/1999/xlink">
<g><path style="opacity:1" fill="#fefefe" d="M -0.5,-0.5 C 82.8333,-0.5 166.167,-0.5 249.5,-0.5C 249.5,49.5 249.5,99.5 249.5,149.5C 166.167,149.5 82.8333,149.5 -0.5,149.5C -0.5,99.5 -0.5,49.5 -0.5,-0.5 Z"/></g>
<g><path style="opacity:1" fill="#fac221" d="M 104.5,69.5 C 103.833,74.1667 103.167,78.8333 102.5,83.5C 95.7571,71.8849 95.9237,60.2182 103,48.5C 110.771,37.2239 117.937,25.5573 124.5,13.5C 131.728,26.8879 139.561,39.8879 148,52.5C 153.583,65.2489 152.25,77.2489 144,88.5C 147.167,66.5025 140.667,47.8358 124.5,32.5C 113.914,42.6703 107.247,55.0036 104.5,69.5 Z"/></g>
<g><path style="opacity:1" fill="#5b5c5d" d="M 118.5,76.5 C 116.585,76.2155 114.919,76.5489 113.5,77.5C 112.711,77.2172 112.044,76.7172 111.5,76C 114.638,75.1977 116.971,75.3643 118.5,76.5 Z"/></g>
<g><path style="opacity:1" fill="#707071" d="M 135.5,77.5 C 133.833,76.1667 132.167,76.1667 130.5,77.5C 129.624,77.6309 128.957,77.2975 128.5,76.5C 131.784,75.343 135.118,75.1764 138.5,76C 137.756,77.0386 136.756,77.5386 135.5,77.5 Z"/></g>
<g><path style="opacity:1" fill="#a7a7a7" d="M 134.5,78.5 C 136.076,79.1429 137.41,80.1429 138.5,81.5C 137.833,82.8333 137.167,84.1667 136.5,85.5C 136.762,84.0222 136.429,82.6888 135.5,81.5C 134.534,83.396 134.201,85.396 134.5,87.5C 133.5,87.5 132.5,87.5 131.5,87.5C 131.795,85.2646 131.461,83.2646 130.5,81.5C 131.436,80.0256 132.77,79.0256 134.5,78.5 Z"/></g>
<g><path style="opacity:1" fill="#4c4d4c" d="M 138.5,81.5 C 138.993,83.2572 139.327,85.0905 139.5,87C 137.843,87.7252 136.843,87.2252 136.5,85.5C 137.167,84.1667 137.833,82.8333 138.5,81.5 Z"/></g>
<g><path style="opacity:1" fill="#f5d06c" d="M 104.5,69.5 C 104.516,75.8789 104.682,82.2122 105,88.5C 103.628,87.0899 102.795,85.4233 102.5,83.5C 103.167,78.8333 103.833,74.1667 104.5,69.5 Z"/></g>
<g><path style="opacity:1" fill="#383838" d="M 113.5,85.5 C 113.737,84.209 113.404,83.209 112.5,82.5C 112.393,80.6214 112.893,80.2881 114,81.5C 114.837,83.3506 115.671,85.1839 116.5,87C 115.212,87.2387 114.212,86.7387 113.5,85.5 Z"/></g>
<g><path style="opacity:1" fill="#949595" d="M 112.5,82.5 C 113.404,83.209 113.737,84.209 113.5,85.5C 112.25,85.5774 111.417,86.244 111,87.5C 110.401,85.4652 110.901,83.7985 112.5,82.5 Z"/></g>
<g><path style="opacity:1" fill="#1f1f1f" d="M 130.5,77.5 C 132.167,76.1667 133.833,76.1667 135.5,77.5C 134.833,77.5 134.5,77.8333 134.5,78.5C 132.77,79.0256 131.436,80.0256 130.5,81.5C 128.042,81.9261 126.876,83.2594 127,85.5C 130.314,88.8177 134.148,91.3177 138.5,93C 135.167,93.6667 131.833,93.6667 128.5,93C 129.308,92.6924 129.975,92.1924 130.5,91.5C 129.185,89.6841 127.685,88.0175 126,86.5C 125.333,91.5 125.333,96.5 126,101.5C 126.903,102.701 128.069,103.535 129.5,104C 126.167,104.667 122.833,104.667 119.5,104C 120.5,103.5 121.5,103 122.5,102.5C 123.833,97.5 123.833,92.5 122.5,87.5C 120.833,88.5 119.5,89.8333 118.5,91.5C 119.025,92.1924 119.692,92.6924 120.5,93C 117.167,93.6667 113.833,93.6667 110.5,93C 115.218,91.1054 119.218,88.2721 122.5,84.5C 119.792,81.7915 116.792,79.4581 113.5,77.5C 114.919,76.5489 116.585,76.2155 118.5,76.5C 119.373,78.8863 120.873,80.8863 123,82.5C 123.667,72.8333 123.667,63.1667 123,53.5C 122.5,53 122,52.5 121.5,52C 135.52,50.862 139.52,56.6954 133.5,69.5C 131.149,71.2289 128.482,71.8956 125.5,71.5C 125.335,75.1817 125.501,78.8484 126,82.5C 127.707,80.9625 129.207,79.2959 130.5,77.5 Z"/></g>
<g><path style="opacity:1" fill="#f1f1f1" d="M 126.5,52.5 C 131.734,52.7526 134.067,55.586 133.5,61C 134.358,67.4094 131.691,70.5761 125.5,70.5C 125.211,64.4093 125.545,58.4093 126.5,52.5 Z"/></g>
<g><path style="opacity:1" fill="#718ec6" d="M 97.5,84.5 C 103.989,94.8384 111.489,104.505 120,113.5C 120.167,117.333 118.333,119.167 114.5,119C 106.305,108.777 100.638,97.2765 97.5,84.5 Z"/></g>
<g><path style="opacity:1" fill="#7390c7" d="M 133.5,125.5 C 142.996,131.751 152.996,137.251 163.5,142C 150.363,142.454 138.697,138.621 128.5,130.5C 130.006,128.599 131.673,126.932 133.5,125.5 Z"/></g>
<g><path style="opacity:1" fill="#ed3533" d="M 150.5,84.5 C 145.207,112.318 128.874,130.818 101.5,140C 96.2247,141.421 90.8913,142.088 85.5,142C 114.199,130.671 135.865,111.504 150.5,84.5 Z"/></g>
</svg>
